<?xml version="1.0" encoding="UTF-8"?>
<svg xmlns="http://www.w3.org/2000/svg" xmlns:xlink="http://www.w3.org/1999/xlink" width="0" height="0">
    <symbol id="github" width="98" height="96"><path fill-rule="evenodd" clip-rule="evenodd" d="M48.854 0C21.839 0 0 22 0 49.217c0 21.756 13.993 40.172 33.405 46.69 2.427.49 3.316-1.059 3.316-2.362 0-1.141-.08-5.052-.08-9.127-13.59 2.934-16.42-5.867-16.42-5.867-2.184-5.704-5.42-7.17-5.42-7.17-4.448-3.015.324-3.015.324-3.015 4.934.326 7.523 5.052 7.523 5.052 4.367 7.496 11.404 5.378 14.235 4.074.404-3.178 1.699-5.378 3.074-6.6-10.839-1.141-22.243-5.378-22.243-24.283 0-5.378 1.94-9.778 5.014-13.2-.485-1.222-2.184-6.275.486-13.038 0 0 4.125-1.304 13.426 5.052a46.97 46.97 0 0 1 12.214-1.63c4.125 0 8.33.571 12.213 1.63 9.302-6.356 13.427-5.052 13.427-5.052 2.67 6.763.97 11.816.485 13.038 3.155 3.422 5.015 7.822 5.015 13.2 0 18.905-11.404 23.06-22.324 24.283 1.78 1.548 3.316 4.481 3.316 9.126 0 6.6-.08 11.897-.08 13.526 0 1.304.89 2.853 3.316 2.364 19.412-6.52 33.405-24.935 33.405-46.691C97.707 22 75.788 0 48.854 0z" fill="#24292f"/></symbol>
    <symbol id="info" width="20" height="20" viewBox="0 0 20 20" fill="none">
    <path d="M9.99984 13.3334V10M9.99984 6.66669H10.0082M18.3332 10C18.3332 14.6024 14.6022 18.3334 9.99984 18.3334C5.39746 18.3334 1.6665 14.6024 1.6665 10C1.6665 5.39765 5.39746 1.66669 9.99984 1.66669C14.6022 1.66669 18.3332 5.39765 18.3332 10Z" stroke="#1E1E1E" stroke-width="2" stroke-linecap="round" stroke-linejoin="round"/>
    </symbol>

    <symbol id="location" viewBox="0 0 384 512"><!--!Font Awesome Free 6.7.1 by @fontawesome - https://fontawesome.com License - https://fontawesome.com/license/free Copyright 2024 Fonticons, Inc.--><path d="M215.7 499.2C267 435 384 279.4 384 192C384 86 298 0 192 0S0 86 0 192c0 87.4 117 243 168.3 307.2c12.3 15.3 35.1 15.3 47.4 0zM192 128a64 64 0 1 1 0 128 64 64 0 1 1 0-128z"/></symbol>
    <symbol id="menu" class="ionicon" viewBox="0 0 512 512"><path fill="none" stroke="currentColor" stroke-linecap="round" stroke-miterlimit="10" stroke-width="48" d="M88 152h336M88 256h336M88 360h336"/></symbol>
    <symbol id="search" class="ionicon" viewBox="0 0 512 512"><path d="M456.69 421.39L362.6 327.3a173.81 173.81 0 0034.84-104.58C397.44 126.38 319.06 48 222.72 48S48 126.38 48 222.72s78.38 174.72 174.72 174.72A173.81 173.81 0 00327.3 362.6l94.09 94.09a25 25 0 0035.3-35.3zM97.92 222.72a124.8 124.8 0 11124.8 124.8 124.95 124.95 0 01-124.8-124.8z"/></symbol>
    <symbol id="telegram" viewBox="0 0 496 512"><!--!Font Awesome Free 6.7.1 by @fontawesome - https://fontawesome.com License - https://fontawesome.com/license/free Copyright 2024 Fonticons, Inc.--><path d="M248 8C111 8 0 119 0 256S111 504 248 504 496 393 496 256 385 8 248 8zM363 176.7c-3.7 39.2-19.9 134.4-28.1 178.3-3.5 18.6-10.3 24.8-16.9 25.4-14.4 1.3-25.3-9.5-39.3-18.7-21.8-14.3-34.2-23.2-55.3-37.2-24.5-16.1-8.6-25 5.3-39.5 3.7-3.8 67.1-61.5 68.3-66.7 .2-.7 .3-3.1-1.2-4.4s-3.6-.8-5.1-.5q-3.3 .7-104.6 69.1-14.8 10.2-26.9 9.9c-8.9-.2-25.9-5-38.6-9.1-15.5-5-27.9-7.7-26.8-16.3q.8-6.7 18.5-13.7 108.4-47.2 144.6-62.3c68.9-28.6 83.2-33.6 92.5-33.8 2.1 0 6.6 .5 9.6 2.9a10.5 10.5 0 0 1 3.5 6.7A43.8 43.8 0 0 1 363 176.7z"/></symbol>
    <symbol id="x" viewBox="0 0 512 512"><!--!Font Awesome Free 6.7.1 by @fontawesome - https://fontawesome.com License - https://fontawesome.com/license/free Copyright 2024 Fonticons, Inc.--><path d="M389.2 48h70.6L305.6 224.2 487 464H345L233.7 318.6 106.5 464H35.8L200.7 275.5 26.8 48H172.4L272.9 180.9 389.2 48zM364.4 421.8h39.1L151.1 88h-42L364.4 421.8z"/></symbol>
    <symbol id="delete" viewBox="0 0 24 24" fill="currentColor">
    <path fill-rule="evenodd" d="M16.5 4.478v.227a48.816 48.816 0 0 1 3.878.512.75.75 0 1 1-.256 1.478l-.209-.035-1.005 13.07a3 3 0 0 1-2.991 2.77H8.084a3 3 0 0 1-2.991-2.77L4.087 6.66l-.209.035a.75.75 0 0 1-.256-1.478A48.567 48.567 0 0 1 7.5 4.705v-.227c0-1.564 1.213-2.9 2.816-2.951a52.662 52.662 0 0 1 3.369 0c1.603.051 2.815 1.387 2.815 2.951Zm-6.136-1.452a51.196 51.196 0 0 1 3.273 0C14.39 3.05 15 3.684 15 4.478v.113a49.488 49.488 0 0 0-6 0v-.113c0-.794.609-1.428 1.364-1.452Zm-.355 5.945a.75.75 0 1 0-1.5.058l.347 9a.75.75 0 1 0 1.499-.058l-.346-9Zm5.48.058a.75.75 0 1 0-1.498-.058l-.347 9a.75.75 0 0 0 1.5.058l.345-9Z" clip-rule="evenodd" />
    </symbol>

    <symbol id="edit" viewBox="0 0 512 512"><!--!Font Awesome Free 6.7.1 by @fontawesome - https://fontawesome.com License - https://fontawesome.com/license/free Copyright 2024 Fonticons, Inc.--><path d="M362.7 19.3L314.3 67.7 444.3 197.7l48.4-48.4c25-25 25-65.5 0-90.5L453.3 19.3c-25-25-65.5-25-90.5 0zm-71 71L58.6 323.5c-10.4 10.4-18 23.3-22.2 37.4L1 481.2C-1.5 489.7 .8 498.8 7 505s15.3 8.5 23.7 6.1l120.3-35.4c14.1-4.2 27-11.8 37.4-22.2L421.7 220.3 291.7 90.3z"/></symbol>
</svg>